<svg width="28" height="28" viewBox="0 0 28 28" fill="none" xmlns="http://www.w3.org/2000/svg">
<path d="M6.72728 8.07567C5.42995 9.15133 5.08928 10.9725 4.40561 14.6125C3.44545 19.7342 2.96595 22.2938 4.36595 23.9808C5.76595 25.6667 8.36995 25.6667 13.5791 25.6667H14.4214C19.6306 25.6667 22.2358 25.6667 23.6346 23.9808C25.0346 22.2938 24.5528 19.7342 23.5938 14.6125C22.9101 10.9725 22.5694 9.15133 21.2721 8.07567M21.2744 8.07567C19.9783 7 18.1256 7 14.4203 7H13.5779C9.87378 7 8.02111 7 6.72495 8.07567" stroke="black" stroke-width="1.5"/>
<path opacity="0.5" d="M10.5 7V5.83334C10.5 4.90508 10.8687 4.01484 11.5251 3.35846C12.1815 2.70208 13.0717 2.33334 14 2.33334C14.9283 2.33334 15.8185 2.70208 16.4749 3.35846C17.1313 4.01484 17.5 4.90508 17.5 5.83334V7" stroke="black" stroke-width="1.5" stroke-linecap="round"/>
</svg>
